{
    "asset" : {
        "generator" : "Khronos glTF Blender I/O v1.4.40",
        "version" : "2.0"
    },
    "scene" : 0,
    "scenes" : [
        {
            "name" : "Standard_Male_Figure",
            "nodes" : [
                0,
                1
            ]
        }
    ],
    "nodes" : [
        {
            "mesh" : 0,
            "name" : "blak_pants_05_pants_2.001",
            "rotation" : [
                0.7071068286895752,
                0,
                0,
                0.7071067094802856
            ],
            "scale" : [
                0.33572596311569214,
                0.33572596311569214,
                0.33572596311569214
            ],
            "translation" : [
                -6.965928077697754,
                9.326751708984375,
                -0.5416300296783447
            ]
        },
        {
            "name" : "Camera_Perspective10",
            "rotation" : [
                0.4872124493122101,
                -0.29202285408973694,
                0.18093381822109222,
                0.8028758764266968
            ],
            "translation" : [
                -14.312899589538574,
                21.279199600219727,
                15.240400314331055
            ]
        }
    ],
    "materials" : [
        {
            "doubleSided" : true,
            "name" : "1_FRONT_4665.007",
            "pbrMetallicRoughness" : {
                "baseColorFactor" : [
                    0.800000011920929,
                    0.800000011920929,
                    0.800000011920929,
                    1
                ],
                "metallicFactor" : 0,
                "roughnessFactor" : 0.5
            }
        }
    ],
    "meshes" : [
        {
            "name" : "blak_pants_05_pants_2.001",
            "primitives" : [
                {
                    "attributes" : {
                        "POSITION" : 0,
                        "NORMAL" : 1,
                        "TEXCOORD_0" : 2
                    },
                    "indices" : 3,
                    "material" : 0
                }
            ]
        }
    ],
    "accessors" : [
        {
            "bufferView" : 0,
            "componentType" : 5126,
            "count" : 43341,
            "max" : [
                28.86463165283203,
                4.2698798179626465,
                27.41127586364746
            ],
            "min" : [
                12.94173526763916,
                -4.023852825164795,
                -5.473475933074951
            ],
            "type" : "VEC3"
        },
        {
            "bufferView" : 1,
            "componentType" : 5126,
            "count" : 43341,
            "type" : "VEC3"
        },
        {
            "bufferView" : 2,
            "componentType" : 5126,
            "count" : 43341,
            "type" : "VEC2"
        },
        {
            "bufferView" : 3,
            "componentType" : 5123,
            "count" : 228798,
            "type" : "SCALAR"
        }
    ],
    "bufferViews" : [
        {
            "buffer" : 0,
            "byteLength" : 520092,
            "byteOffset" : 0
        },
        {
            "buffer" : 0,
            "byteLength" : 520092,
            "byteOffset" : 520092
        },
        {
            "buffer" : 0,
            "byteLength" : 346728,
            "byteOffset" : 1040184
        },
        {
            "buffer" : 0,
            "byteLength" : 457596,
            "byteOffset" : 1386912
        }
    ],
    "buffers" : [
        {
            "byteLength" : 1844508,
            "uri" : "data:application/octet-stream;base64,"
        }
    ]
}
