{
    "asset" : {
        "generator" : "Khronos glTF Blender I/O v1.4.40",
        "version" : "2.0"
    },
    "scene" : 0,
    "scenes" : [
        {
            "name" : "Standard_Female_Figure",
            "nodes" : [
                0,
                1,
                2,
                3,
                4
            ]
        }
    ],
    "nodes" : [
        {
            "mesh" : 0,
            "name" : "Skirt_Top_002.003",
            "rotation" : [
                0.7071068286895752,
                0,
                0,
                0.7071067094802856
            ],
            "scale" : [
                0.12704133987426758,
                0.12704133987426758,
                0.12704133987426758
            ],
            "translation" : [
                0.0067643229849636555,
                -4.995026588439941,
                -0.6294987201690674
            ]
        },
        {
            "mesh" : 1,
            "name" : "Detail_Top_002.002",
            "rotation" : [
                0.7071068286895752,
                0,
                0,
                0.7071067094802856
            ],
            "scale" : [
                0.10805705934762955,
                0.10805705934762955,
                0.10805705934762955
            ],
            "translation" : [
                -16.11610221862793,
                0.35021209716796875,
                -7.271411895751953
            ]
        },
        {
            "mesh" : 2,
            "name" : "Top_Top_002.001",
            "rotation" : [
                0.7071068286895752,
                0,
                0,
                0.7071067094802856
            ],
            "scale" : [
                0.12610383331775665,
                0.12610383331775665,
                0.12610383331775665
            ],
            "translation" : [
                0.06900252401828766,
                -4.931280136108398,
                -0.8806190490722656
            ]
        },
        {
            "mesh" : 3,
            "name" : "Detail_Top_002.001",
            "rotation" : [
                0.7071068286895752,
                0,
                0,
                0.7071067094802856
            ],
            "scale" : [
                0.1149735227227211,
                0.1149735227227211,
                0.1149735227227211
            ],
            "translation" : [
                -17.120569229125977,
                -0.2542877197265625,
                -7.646669387817383
            ]
        },
        {
            "name" : "Camera_Perspective10",
            "rotation" : [
                0.5087868571281433,
                -0.25390157103538513,
                0.16396616399288177,
                0.8060924410820007
            ],
            "translation" : [
                -12.546213150024414,
                18.821319580078125,
                12.803150177001953
            ]
        }
    ],
    "materials" : [
        {
            "doubleSided" : true,
            "name" : "Dress",
            "pbrMetallicRoughness" : {
                "baseColorFactor" : [
                    0.800000011920929,
                    0.800000011920929,
                    0.800000011920929,
                    1
                ],
                "metallicFactor" : 0,
                "roughnessFactor" : 0.5
            }
        },
        {
            "doubleSided" : true,
            "name" : "Detail",
            "pbrMetallicRoughness" : {
                "baseColorFactor" : [
                    0.800000011920929,
                    0.800000011920929,
                    0.800000011920929,
                    1
                ],
                "metallicFactor" : 0,
                "roughnessFactor" : 0.5
            }
        }
    ],
    "meshes" : [
        {
            "name" : "Skirt_Top_002.003",
            "primitives" : [
                {
                    "attributes" : {
                        "POSITION" : 0,
                        "NORMAL" : 1,
                        "TEXCOORD_0" : 2
                    },
                    "indices" : 3,
                    "material" : 0
                }
            ]
        },
        {
            "name" : "Detail_Top_002.002",
            "primitives" : [
                {
                    "attributes" : {
                        "POSITION" : 4,
                        "NORMAL" : 5,
                        "TEXCOORD_0" : 6
                    },
                    "indices" : 7,
                    "material" : 1
                }
            ]
        },
        {
            "name" : "Top_Top_002.001",
            "primitives" : [
                {
                    "attributes" : {
                        "POSITION" : 8,
                        "NORMAL" : 9,
                        "TEXCOORD_0" : 10
                    },
                    "indices" : 11,
                    "material" : 0
                }
            ]
        },
        {
            "name" : "Detail_Top_002.001",
            "primitives" : [
                {
                    "attributes" : {
                        "POSITION" : 12,
                        "NORMAL" : 13,
                        "TEXCOORD_0" : 14
                    },
                    "indices" : 15,
                    "material" : 1
                }
            ]
        }
    ],
    "accessors" : [
        {
            "bufferView" : 0,
            "componentType" : 5126,
            "count" : 17205,
            "max" : [
                31.579303741455078,
                23.37163543701172,
                -53.347930908203125
            ],
            "min" : [
                -30.331764221191406,
                -26.946460723876953,
                -117.37281036376953
            ],
            "type" : "VEC3"
        },
        {
            "bufferView" : 1,
            "componentType" : 5126,
            "count" : 17205,
            "type" : "VEC3"
        },
        {
            "bufferView" : 2,
            "componentType" : 5126,
            "count" : 17205,
            "type" : "VEC2"
        },
        {
            "bufferView" : 3,
            "componentType" : 5123,
            "count" : 69966,
            "type" : "SCALAR"
        },
        {
            "bufferView" : 4,
            "componentType" : 5126,
            "count" : 103,
            "max" : [
                155.18934631347656,
                62.43705749511719,
                -122.65299987792969
            ],
            "min" : [
                142.98419189453125,
                52.37664031982422,
                -127.78549194335938
            ],
            "type" : "VEC3"
        },
        {
            "bufferView" : 5,
            "componentType" : 5126,
            "count" : 103,
            "type" : "VEC3"
        },
        {
            "bufferView" : 6,
            "componentType" : 5126,
            "count" : 103,
            "type" : "VEC2"
        },
        {
            "bufferView" : 7,
            "componentType" : 5123,
            "count" : 357,
            "type" : "SCALAR"
        },
        {
            "bufferView" : 8,
            "componentType" : 5126,
            "count" : 1752,
            "max" : [
                11.604147911071777,
                15.511405944824219,
                -119.99688720703125
            ],
            "min" : [
                -13.671015739440918,
                -0.5979850888252258,
                -150.45587158203125
            ],
            "type" : "VEC3"
        },
        {
            "bufferView" : 9,
            "componentType" : 5126,
            "count" : 1752,
            "type" : "VEC3"
        },
        {
            "bufferView" : 10,
            "componentType" : 5126,
            "count" : 1752,
            "type" : "VEC2"
        },
        {
            "bufferView" : 11,
            "componentType" : 5123,
            "count" : 6336,
            "type" : "SCALAR"
        },
        {
            "bufferView" : 12,
            "componentType" : 5126,
            "count" : 1140,
            "max" : [
                160.19017028808594,
                72.9052505493164,
                -87.40016174316406
            ],
            "min" : [
                137.6330108642578,
                54.25563430786133,
                -91.51348876953125
            ],
            "type" : "VEC3"
        },
        {
            "bufferView" : 13,
            "componentType" : 5126,
            "count" : 1140,
            "type" : "VEC3"
        },
        {
            "bufferView" : 14,
            "componentType" : 5126,
            "count" : 1140,
            "type" : "VEC2"
        },
        {
            "bufferView" : 15,
            "componentType" : 5123,
            "count" : 4761,
            "type" : "SCALAR"
        }
    ],
    "bufferViews" : [
        {
            "buffer" : 0,
            "byteLength" : 206460,
            "byteOffset" : 0
        },
        {
            "buffer" : 0,
            "byteLength" : 206460,
            "byteOffset" : 206460
        },
        {
            "buffer" : 0,
            "byteLength" : 137640,
            "byteOffset" : 412920
        },
        {
            "buffer" : 0,
            "byteLength" : 139932,
            "byteOffset" : 550560
        },
        {
            "buffer" : 0,
            "byteLength" : 1236,
            "byteOffset" : 690492
        },
        {
            "buffer" : 0,
            "byteLength" : 1236,
            "byteOffset" : 691728
        },
        {
            "buffer" : 0,
            "byteLength" : 824,
            "byteOffset" : 692964
        },
        {
            "buffer" : 0,
            "byteLength" : 714,
            "byteOffset" : 693788
        },
        {
            "buffer" : 0,
            "byteLength" : 21024,
            "byteOffset" : 694504
        },
        {
            "buffer" : 0,
            "byteLength" : 21024,
            "byteOffset" : 715528
        },
        {
            "buffer" : 0,
            "byteLength" : 14016,
            "byteOffset" : 736552
        },
        {
            "buffer" : 0,
            "byteLength" : 12672,
            "byteOffset" : 750568
        },
        {
            "buffer" : 0,
            "byteLength" : 13680,
            "byteOffset" : 763240
        },
        {
            "buffer" : 0,
            "byteLength" : 13680,
            "byteOffset" : 776920
        },
        {
            "buffer" : 0,
            "byteLength" : 9120,
            "byteOffset" : 790600
        },
        {
            "buffer" : 0,
            "byteLength" : 9522,
            "byteOffset" : 799720
        }
    ],
    "buffers" : [
        {
            "byteLength" : 809244,
            "uri" : "data:application/octet-stream;base64,"
        }
    ]
}
