{
    "asset" : {
        "generator" : "Khronos glTF Blender I/O v1.4.40",
        "version" : "2.0"
    },
    "scene" : 0,
    "scenes" : [
        {
            "name" : "Standard_Female_Figure",
            "nodes" : [
                0,
                1,
                2,
                3,
                4,
                5,
                6,
                7,
                8,
                9,
                10
            ]
        }
    ],
    "nodes" : [
        {
            "name" : "Camera_Perspective10",
            "rotation" : [
                0.5087868571281433,
                -0.25390157103538513,
                0.16396616399288177,
                0.8060924410820007
            ],
            "translation" : [
                -12.546213150024414,
                18.821319580078125,
                12.803150177001953
            ]
        },
        {
            "mesh" : 0,
            "name" : "TeethLower_M_GeoRndr"
        },
        {
            "mesh" : 1,
            "name" : "Tongue_M_GeoRndr"
        },
        {
            "mesh" : 2,
            "name" : "Body_M_GeoRndr"
        },
        {
            "mesh" : 3,
            "name" : "GumsUpper_M_GeoRndr"
        },
        {
            "mesh" : 4,
            "name" : "TeethUpper_M_GeoRndr"
        },
        {
            "mesh" : 5,
            "name" : "OuterEye_L_GeoRndr"
        },
        {
            "mesh" : 6,
            "name" : "GumsLower_M_GeoRndr"
        },
        {
            "mesh" : 7,
            "name" : "InnerEye_L_GeoRndr"
        },
        {
            "mesh" : 8,
            "name" : "OuterEye_R_GeoRndr"
        },
        {
            "mesh" : 9,
            "name" : "InnerEye_R_GeoRndr"
        }
    ],
    "materials" : [
        {
            "doubleSided" : true,
            "name" : "af05cf",
            "pbrMetallicRoughness" : {
                "baseColorFactor" : [
                    0.686274528503418,
                    0.019607843831181526,
                    0.8117647171020508,
                    1
                ],
                "metallicFactor" : 0,
                "roughnessFactor" : 0.5
            }
        },
        {
            "doubleSided" : true,
            "name" : "18a3f8",
            "pbrMetallicRoughness" : {
                "baseColorFactor" : [
                    0.0941176488995552,
                    0.6392157077789307,
                    0.9725490212440491,
                    1
                ],
                "metallicFactor" : 0,
                "roughnessFactor" : 0.5
            }
        },
        {
            "doubleSided" : true,
            "name" : "bfbfbf",
            "pbrMetallicRoughness" : {
                "baseColorFactor" : [
                    0.7490196228027344,
                    0.7490196228027344,
                    0.7490196228027344,
                    1
                ],
                "metallicFactor" : 0,
                "roughnessFactor" : 0.5
            }
        },
        {
            "doubleSided" : true,
            "name" : "dd9681",
            "pbrMetallicRoughness" : {
                "baseColorFactor" : [
                    0.8666666746139526,
                    0.5882353186607361,
                    0.5058823823928833,
                    1
                ],
                "metallicFactor" : 0,
                "roughnessFactor" : 0.5
            }
        },
        {
            "doubleSided" : true,
            "name" : "618f43",
            "pbrMetallicRoughness" : {
                "baseColorFactor" : [
                    0.3803921639919281,
                    0.5607843399047852,
                    0.26274511218070984,
                    1
                ],
                "metallicFactor" : 0,
                "roughnessFactor" : 0.5
            }
        },
        {
            "doubleSided" : true,
            "name" : "ffffff",
            "pbrMetallicRoughness" : {
                "baseColorFactor" : [
                    1,
                    1,
                    1,
                    1
                ],
                "metallicFactor" : 0,
                "roughnessFactor" : 0.5
            }
        },
        {
            "doubleSided" : true,
            "name" : "d126aa",
            "pbrMetallicRoughness" : {
                "baseColorFactor" : [
                    0.8196078538894653,
                    0.14901961386203766,
                    0.6666666865348816,
                    1
                ],
                "metallicFactor" : 0,
                "roughnessFactor" : 0.5
            }
        },
        {
            "doubleSided" : true,
            "name" : "e25d1f",
            "pbrMetallicRoughness" : {
                "baseColorFactor" : [
                    0.886274516582489,
                    0.364705890417099,
                    0.12156862765550613,
                    1
                ],
                "metallicFactor" : 0,
                "roughnessFactor" : 0.5
            }
        },
        {
            "doubleSided" : true,
            "name" : "d70e6f",
            "pbrMetallicRoughness" : {
                "baseColorFactor" : [
                    0.843137264251709,
                    0.054901961237192154,
                    0.43529412150382996,
                    1
                ],
                "metallicFactor" : 0,
                "roughnessFactor" : 0.5
            }
        }
    ],
    "meshes" : [
        {
            "name" : "TeethLower_M_GeoRndr",
            "primitives" : [
                {
                    "attributes" : {
                        "POSITION" : 0,
                        "NORMAL" : 1,
                        "TEXCOORD_0" : 2
                    },
                    "indices" : 3,
                    "material" : 0
                }
            ]
        },
        {
            "name" : "Tongue_M_GeoRndr",
            "primitives" : [
                {
                    "attributes" : {
                        "POSITION" : 4,
                        "NORMAL" : 5,
                        "TEXCOORD_0" : 6
                    },
                    "indices" : 7,
                    "material" : 1
                }
            ]
        },
        {
            "name" : "Body_M_GeoRndr",
            "primitives" : [
                {
                    "attributes" : {
                        "POSITION" : 8,
                        "NORMAL" : 9,
                        "TEXCOORD_0" : 10
                    },
                    "indices" : 11,
                    "material" : 2
                }
            ]
        },
        {
            "name" : "GumsUpper_M_GeoRndr",
            "primitives" : [
                {
                    "attributes" : {
                        "POSITION" : 12,
                        "NORMAL" : 13,
                        "TEXCOORD_0" : 14
                    },
                    "indices" : 15,
                    "material" : 3
                }
            ]
        },
        {
            "name" : "TeethUpper_M_GeoRndr",
            "primitives" : [
                {
                    "attributes" : {
                        "POSITION" : 16,
                        "NORMAL" : 17,
                        "TEXCOORD_0" : 18
                    },
                    "indices" : 19,
                    "material" : 4
                }
            ]
        },
        {
            "name" : "OuterEye_L_GeoRndr",
            "primitives" : [
                {
                    "attributes" : {
                        "POSITION" : 20,
                        "NORMAL" : 21,
                        "TEXCOORD_0" : 22
                    },
                    "indices" : 23,
                    "material" : 5
                }
            ]
        },
        {
            "name" : "GumsLower_M_GeoRndr",
            "primitives" : [
                {
                    "attributes" : {
                        "POSITION" : 24,
                        "NORMAL" : 25,
                        "TEXCOORD_0" : 26
                    },
                    "indices" : 27,
                    "material" : 6
                }
            ]
        },
        {
            "name" : "InnerEye_L_GeoRndr",
            "primitives" : [
                {
                    "attributes" : {
                        "POSITION" : 28,
                        "NORMAL" : 29,
                        "TEXCOORD_0" : 30
                    },
                    "indices" : 31,
                    "material" : 7
                }
            ]
        },
        {
            "name" : "OuterEye_R_GeoRndr",
            "primitives" : [
                {
                    "attributes" : {
                        "POSITION" : 32,
                        "NORMAL" : 33,
                        "TEXCOORD_0" : 34
                    },
                    "indices" : 35,
                    "material" : 5
                }
            ]
        },
        {
            "name" : "InnerEye_R_GeoRndr",
            "primitives" : [
                {
                    "attributes" : {
                        "POSITION" : 36,
                        "NORMAL" : 37,
                        "TEXCOORD_0" : 38
                    },
                    "indices" : 39,
                    "material" : 8
                }
            ]
        }
    ],
    "accessors" : [
        {
            "bufferView" : 0,
            "componentType" : 5126,
            "count" : 3178,
            "max" : [
                0.25484800338745117,
                14.762479782104492,
                0.07442999631166458
            ],
            "min" : [
                -0.25494399666786194,
                14.537331581115723,
                -0.3485049903392792
            ],
            "type" : "VEC3"
        },
        {
            "bufferView" : 1,
            "componentType" : 5126,
            "count" : 3178,
            "type" : "VEC3"
        },
        {
            "bufferView" : 2,
            "componentType" : 5126,
            "count" : 3178,
            "type" : "VEC2"
        },
        {
            "bufferView" : 3,
            "componentType" : 5123,
            "count" : 15168,
            "type" : "SCALAR"
        },
        {
            "bufferView" : 4,
            "componentType" : 5126,
            "count" : 420,
            "max" : [
                0.2329539954662323,
                14.822691917419434,
                0.05866999924182892
            ],
            "min" : [
                -0.2329539954662323,
                14.10132122039795,
                -1.042389988899231
            ],
            "type" : "VEC3"
        },
        {
            "bufferView" : 5,
            "componentType" : 5126,
            "count" : 420,
            "type" : "VEC3"
        },
        {
            "bufferView" : 6,
            "componentType" : 5126,
            "count" : 420,
            "type" : "VEC2"
        },
        {
            "bufferView" : 7,
            "componentType" : 5123,
            "count" : 2292,
            "type" : "SCALAR"
        },
        {
            "bufferView" : 8,
            "componentType" : 5126,
            "count" : 12072,
            "max" : [
                6.577935218811035,
                16.508209228515625,
                0.6759240031242371
            ],
            "min" : [
                -6.577935218811035,
                -0.06269100308418274,
                -1.8494750261306763
            ],
            "type" : "VEC3"
        },
        {
            "bufferView" : 9,
            "componentType" : 5126,
            "count" : 12072,
            "type" : "VEC3"
        },
        {
            "bufferView" : 10,
            "componentType" : 5126,
            "count" : 12072,
            "type" : "VEC2"
        },
        {
            "bufferView" : 11,
            "componentType" : 5123,
            "count" : 63288,
            "type" : "SCALAR"
        },
        {
            "bufferView" : 12,
            "componentType" : 5126,
            "count" : 2095,
            "max" : [
                0.2914170026779175,
                14.963064193725586,
                0.09651300311088562
            ],
            "min" : [
                -0.2914170026779175,
                14.730905532836914,
                -0.35931700468063354
            ],
            "type" : "VEC3"
        },
        {
            "bufferView" : 13,
            "componentType" : 5126,
            "count" : 2095,
            "type" : "VEC3"
        },
        {
            "bufferView" : 14,
            "componentType" : 5126,
            "count" : 2095,
            "type" : "VEC2"
        },
        {
            "bufferView" : 15,
            "componentType" : 5123,
            "count" : 10458,
            "type" : "SCALAR"
        },
        {
            "bufferView" : 16,
            "componentType" : 5126,
            "count" : 3099,
            "max" : [
                0.2539040148258209,
                14.917776107788086,
                0.09046199917793274
            ],
            "min" : [
                -0.2539060115814209,
                14.70345401763916,
                -0.33100301027297974
            ],
            "type" : "VEC3"
        },
        {
            "bufferView" : 17,
            "componentType" : 5126,
            "count" : 3099,
            "type" : "VEC3"
        },
        {
            "bufferView" : 18,
            "componentType" : 5126,
            "count" : 3099,
            "type" : "VEC2"
        },
        {
            "bufferView" : 19,
            "componentType" : 5123,
            "count" : 14592,
            "type" : "SCALAR"
        },
        {
            "bufferView" : 20,
            "componentType" : 5126,
            "count" : 117,
            "max" : [
                0.44639599323272705,
                15.576705932617188,
                0.06409800052642822
            ],
            "min" : [
                0.15704099833965302,
                15.286638259887695,
                -0.20479600131511688
            ],
            "type" : "VEC3"
        },
        {
            "bufferView" : 21,
            "componentType" : 5126,
            "count" : 117,
            "type" : "VEC3"
        },
        {
            "bufferView" : 22,
            "componentType" : 5126,
            "count" : 117,
            "type" : "VEC2"
        },
        {
            "bufferView" : 23,
            "componentType" : 5123,
            "count" : 624,
            "type" : "SCALAR"
        },
        {
            "bufferView" : 24,
            "componentType" : 5126,
            "count" : 2109,
            "max" : [
                0.292605996131897,
                14.737092971801758,
                0.07220199704170227
            ],
            "min" : [
                -0.292605996131897,
                14.509992599487305,
                -0.40018099546432495
            ],
            "type" : "VEC3"
        },
        {
            "bufferView" : 25,
            "componentType" : 5126,
            "count" : 2109,
            "type" : "VEC3"
        },
        {
            "bufferView" : 26,
            "componentType" : 5126,
            "count" : 2109,
            "type" : "VEC2"
        },
        {
            "bufferView" : 27,
            "componentType" : 5123,
            "count" : 10458,
            "type" : "SCALAR"
        },
        {
            "bufferView" : 28,
            "componentType" : 5126,
            "count" : 116,
            "max" : [
                0.4442810118198395,
                15.575628280639648,
                0.047756001353263855
            ],
            "min" : [
                0.15794000029563904,
                15.288579940795898,
                -0.20345699787139893
            ],
            "type" : "VEC3"
        },
        {
            "bufferView" : 29,
            "componentType" : 5126,
            "count" : 116,
            "type" : "VEC3"
        },
        {
            "bufferView" : 30,
            "componentType" : 5126,
            "count" : 116,
            "type" : "VEC2"
        },
        {
            "bufferView" : 31,
            "componentType" : 5123,
            "count" : 528,
            "type" : "SCALAR"
        },
        {
            "bufferView" : 32,
            "componentType" : 5126,
            "count" : 117,
            "max" : [
                -0.15706300735473633,
                15.576704978942871,
                0.06410399824380875
            ],
            "min" : [
                -0.44640201330184937,
                15.286652565002441,
                -0.20477600395679474
            ],
            "type" : "VEC3"
        },
        {
            "bufferView" : 33,
            "componentType" : 5126,
            "count" : 117,
            "type" : "VEC3"
        },
        {
            "bufferView" : 34,
            "componentType" : 5126,
            "count" : 117,
            "type" : "VEC2"
        },
        {
            "bufferView" : 35,
            "componentType" : 5123,
            "count" : 624,
            "type" : "SCALAR"
        },
        {
            "bufferView" : 36,
            "componentType" : 5126,
            "count" : 116,
            "max" : [
                -0.15796199440956116,
                15.575627326965332,
                0.047763001173734665
            ],
            "min" : [
                -0.4442879855632782,
                15.288595199584961,
                -0.2034360021352768
            ],
            "type" : "VEC3"
        },
        {
            "bufferView" : 37,
            "componentType" : 5126,
            "count" : 116,
            "type" : "VEC3"
        },
        {
            "bufferView" : 38,
            "componentType" : 5126,
            "count" : 116,
            "type" : "VEC2"
        },
        {
            "bufferView" : 39,
            "componentType" : 5123,
            "count" : 528,
            "type" : "SCALAR"
        }
    ],
    "bufferViews" : [
        {
            "buffer" : 0,
            "byteLength" : 38136,
            "byteOffset" : 0
        },
        {
            "buffer" : 0,
            "byteLength" : 38136,
            "byteOffset" : 38136
        },
        {
            "buffer" : 0,
            "byteLength" : 25424,
            "byteOffset" : 76272
        },
        {
            "buffer" : 0,
            "byteLength" : 30336,
            "byteOffset" : 101696
        },
        {
            "buffer" : 0,
            "byteLength" : 5040,
            "byteOffset" : 132032
        },
        {
            "buffer" : 0,
            "byteLength" : 5040,
            "byteOffset" : 137072
        },
        {
            "buffer" : 0,
            "byteLength" : 3360,
            "byteOffset" : 142112
        },
        {
            "buffer" : 0,
            "byteLength" : 4584,
            "byteOffset" : 145472
        },
        {
            "buffer" : 0,
            "byteLength" : 144864,
            "byteOffset" : 150056
        },
        {
            "buffer" : 0,
            "byteLength" : 144864,
            "byteOffset" : 294920
        },
        {
            "buffer" : 0,
            "byteLength" : 96576,
            "byteOffset" : 439784
        },
        {
            "buffer" : 0,
            "byteLength" : 126576,
            "byteOffset" : 536360
        },
        {
            "buffer" : 0,
            "byteLength" : 25140,
            "byteOffset" : 662936
        },
        {
            "buffer" : 0,
            "byteLength" : 25140,
            "byteOffset" : 688076
        },
        {
            "buffer" : 0,
            "byteLength" : 16760,
            "byteOffset" : 713216
        },
        {
            "buffer" : 0,
            "byteLength" : 20916,
            "byteOffset" : 729976
        },
        {
            "buffer" : 0,
            "byteLength" : 37188,
            "byteOffset" : 750892
        },
        {
            "buffer" : 0,
            "byteLength" : 37188,
            "byteOffset" : 788080
        },
        {
            "buffer" : 0,
            "byteLength" : 24792,
            "byteOffset" : 825268
        },
        {
            "buffer" : 0,
            "byteLength" : 29184,
            "byteOffset" : 850060
        },
        {
            "buffer" : 0,
            "byteLength" : 1404,
            "byteOffset" : 879244
        },
        {
            "buffer" : 0,
            "byteLength" : 1404,
            "byteOffset" : 880648
        },
        {
            "buffer" : 0,
            "byteLength" : 936,
            "byteOffset" : 882052
        },
        {
            "buffer" : 0,
            "byteLength" : 1248,
            "byteOffset" : 882988
        },
        {
            "buffer" : 0,
            "byteLength" : 25308,
            "byteOffset" : 884236
        },
        {
            "buffer" : 0,
            "byteLength" : 25308,
            "byteOffset" : 909544
        },
        {
            "buffer" : 0,
            "byteLength" : 16872,
            "byteOffset" : 934852
        },
        {
            "buffer" : 0,
            "byteLength" : 20916,
            "byteOffset" : 951724
        },
        {
            "buffer" : 0,
            "byteLength" : 1392,
            "byteOffset" : 972640
        },
        {
            "buffer" : 0,
            "byteLength" : 1392,
            "byteOffset" : 974032
        },
        {
            "buffer" : 0,
            "byteLength" : 928,
            "byteOffset" : 975424
        },
        {
            "buffer" : 0,
            "byteLength" : 1056,
            "byteOffset" : 976352
        },
        {
            "buffer" : 0,
            "byteLength" : 1404,
            "byteOffset" : 977408
        },
        {
            "buffer" : 0,
            "byteLength" : 1404,
            "byteOffset" : 978812
        },
        {
            "buffer" : 0,
            "byteLength" : 936,
            "byteOffset" : 980216
        },
        {
            "buffer" : 0,
            "byteLength" : 1248,
            "byteOffset" : 981152
        },
        {
            "buffer" : 0,
            "byteLength" : 1392,
            "byteOffset" : 982400
        },
        {
            "buffer" : 0,
            "byteLength" : 1392,
            "byteOffset" : 983792
        },
        {
            "buffer" : 0,
            "byteLength" : 928,
            "byteOffset" : 985184
        },
        {
            "buffer" : 0,
            "byteLength" : 1056,
            "byteOffset" : 986112
        }
    ],
    "buffers" : [
        {
            "byteLength" : 987168,
            "uri" : "data:application/octet-stream;base64,"
        }
    ]
}
