{
    "asset" : {
        "generator" : "Khronos glTF Blender I/O v1.4.40",
        "version" : "2.0"
    },
    "scene" : 0,
    "scenes" : [
        {
            "name" : "Standard_Male_Figure",
            "nodes" : [
                0,
                1,
                2,
                3,
                4,
                5,
                6,
                7,
                8,
                9,
                10
            ]
        }
    ],
    "nodes" : [
        {
            "mesh" : 0,
            "name" : "GumsLower_M_GeoRndr"
        },
        {
            "mesh" : 1,
            "name" : "GumsUpper_M_GeoRndr"
        },
        {
            "mesh" : 2,
            "name" : "OuterEye_L_GeoRndr"
        },
        {
            "mesh" : 3,
            "name" : "TeethUpper_M_GeoRndr"
        },
        {
            "name" : "Camera_Perspective10",
            "rotation" : [
                0.4872124493122101,
                -0.29202285408973694,
                0.18093381822109222,
                0.8028758764266968
            ],
            "translation" : [
                -14.312899589538574,
                21.279199600219727,
                15.240400314331055
            ]
        },
        {
            "mesh" : 4,
            "name" : "OuterEye_R_GeoRndr"
        },
        {
            "mesh" : 5,
            "name" : "Body_M_GeoRndr"
        },
        {
            "mesh" : 6,
            "name" : "TeethLower_M_GeoRndr"
        },
        {
            "mesh" : 7,
            "name" : "InnerEye_R_GeoRndr"
        },
        {
            "mesh" : 8,
            "name" : "InnerEye_L_GeoRndr"
        },
        {
            "mesh" : 9,
            "name" : "Tongue_M_GeoRndr"
        }
    ],
    "materials" : [
        {
            "doubleSided" : true,
            "name" : "deda1a",
            "pbrMetallicRoughness" : {
                "baseColorFactor" : [
                    0.8705882430076599,
                    0.8549019694328308,
                    0.10196078568696976,
                    1
                ],
                "metallicFactor" : 0,
                "roughnessFactor" : 0.5
            }
        },
        {
            "doubleSided" : true,
            "name" : "c6744c",
            "pbrMetallicRoughness" : {
                "baseColorFactor" : [
                    0.7764706015586853,
                    0.45490196347236633,
                    0.2980392277240753,
                    1
                ],
                "metallicFactor" : 0,
                "roughnessFactor" : 0.5
            }
        },
        {
            "doubleSided" : true,
            "name" : "ffffff",
            "pbrMetallicRoughness" : {
                "baseColorFactor" : [
                    1,
                    1,
                    1,
                    1
                ],
                "metallicFactor" : 0,
                "roughnessFactor" : 0.5
            }
        },
        {
            "doubleSided" : true,
            "name" : "59938c",
            "pbrMetallicRoughness" : {
                "baseColorFactor" : [
                    0.3490196168422699,
                    0.5764706134796143,
                    0.5490196347236633,
                    1
                ],
                "metallicFactor" : 0,
                "roughnessFactor" : 0.5
            }
        },
        {
            "doubleSided" : true,
            "name" : "bababa",
            "pbrMetallicRoughness" : {
                "baseColorFactor" : [
                    0.729411780834198,
                    0.729411780834198,
                    0.729411780834198,
                    1
                ],
                "metallicFactor" : 0,
                "roughnessFactor" : 0.5
            }
        },
        {
            "doubleSided" : true,
            "name" : "4285fd",
            "pbrMetallicRoughness" : {
                "baseColorFactor" : [
                    0.25882354378700256,
                    0.5215686559677124,
                    0.9921568632125854,
                    1
                ],
                "metallicFactor" : 0,
                "roughnessFactor" : 0.5
            }
        },
        {
            "doubleSided" : true,
            "name" : "1768",
            "pbrMetallicRoughness" : {
                "baseColorFactor" : [
                    0,
                    0.09019608050584793,
                    0.40784314274787903,
                    1
                ],
                "metallicFactor" : 0,
                "roughnessFactor" : 0.5
            }
        },
        {
            "doubleSided" : true,
            "name" : "51df4",
            "pbrMetallicRoughness" : {
                "baseColorFactor" : [
                    0.019607843831181526,
                    0.11372549086809158,
                    0.95686274766922,
                    1
                ],
                "metallicFactor" : 0,
                "roughnessFactor" : 0.5
            }
        },
        {
            "doubleSided" : true,
            "name" : "bf2feb",
            "pbrMetallicRoughness" : {
                "baseColorFactor" : [
                    0.7490196228027344,
                    0.18431372940540314,
                    0.9215686321258545,
                    1
                ],
                "metallicFactor" : 0,
                "roughnessFactor" : 0.5
            }
        }
    ],
    "meshes" : [
        {
            "name" : "GumsLower_M_GeoRndr",
            "primitives" : [
                {
                    "attributes" : {
                        "POSITION" : 0,
                        "NORMAL" : 1,
                        "TEXCOORD_0" : 2
                    },
                    "indices" : 3,
                    "material" : 0
                }
            ]
        },
        {
            "name" : "GumsUpper_M_GeoRndr",
            "primitives" : [
                {
                    "attributes" : {
                        "POSITION" : 4,
                        "NORMAL" : 5,
                        "TEXCOORD_0" : 6
                    },
                    "indices" : 7,
                    "material" : 1
                }
            ]
        },
        {
            "name" : "OuterEye_L_GeoRndr",
            "primitives" : [
                {
                    "attributes" : {
                        "POSITION" : 8,
                        "NORMAL" : 9,
                        "TEXCOORD_0" : 10
                    },
                    "indices" : 11,
                    "material" : 2
                }
            ]
        },
        {
            "name" : "TeethUpper_M_GeoRndr",
            "primitives" : [
                {
                    "attributes" : {
                        "POSITION" : 12,
                        "NORMAL" : 13,
                        "TEXCOORD_0" : 14
                    },
                    "indices" : 15,
                    "material" : 3
                }
            ]
        },
        {
            "name" : "OuterEye_R_GeoRndr",
            "primitives" : [
                {
                    "attributes" : {
                        "POSITION" : 16,
                        "NORMAL" : 17,
                        "TEXCOORD_0" : 18
                    },
                    "indices" : 19,
                    "material" : 2
                }
            ]
        },
        {
            "name" : "Body_M_GeoRndr",
            "primitives" : [
                {
                    "attributes" : {
                        "POSITION" : 20,
                        "NORMAL" : 21,
                        "TEXCOORD_0" : 22
                    },
                    "indices" : 23,
                    "material" : 4
                }
            ]
        },
        {
            "name" : "TeethLower_M_GeoRndr",
            "primitives" : [
                {
                    "attributes" : {
                        "POSITION" : 24,
                        "NORMAL" : 25,
                        "TEXCOORD_0" : 26
                    },
                    "indices" : 27,
                    "material" : 5
                }
            ]
        },
        {
            "name" : "InnerEye_R_GeoRndr",
            "primitives" : [
                {
                    "attributes" : {
                        "POSITION" : 28,
                        "NORMAL" : 29,
                        "TEXCOORD_0" : 30
                    },
                    "indices" : 31,
                    "material" : 6
                }
            ]
        },
        {
            "name" : "InnerEye_L_GeoRndr",
            "primitives" : [
                {
                    "attributes" : {
                        "POSITION" : 32,
                        "NORMAL" : 33,
                        "TEXCOORD_0" : 34
                    },
                    "indices" : 35,
                    "material" : 7
                }
            ]
        },
        {
            "name" : "Tongue_M_GeoRndr",
            "primitives" : [
                {
                    "attributes" : {
                        "POSITION" : 36,
                        "NORMAL" : 37,
                        "TEXCOORD_0" : 38
                    },
                    "indices" : 39,
                    "material" : 8
                }
            ]
        }
    ],
    "accessors" : [
        {
            "bufferView" : 0,
            "componentType" : 5126,
            "count" : 2094,
            "max" : [
                0.38201799988746643,
                16.379608154296875,
                0.3767639994621277
            ],
            "min" : [
                -0.3826949894428253,
                16.1230525970459,
                -0.15748299658298492
            ],
            "type" : "VEC3"
        },
        {
            "bufferView" : 1,
            "componentType" : 5126,
            "count" : 2094,
            "type" : "VEC3"
        },
        {
            "bufferView" : 2,
            "componentType" : 5126,
            "count" : 2094,
            "type" : "VEC2"
        },
        {
            "bufferView" : 3,
            "componentType" : 5123,
            "count" : 10458,
            "type" : "SCALAR"
        },
        {
            "bufferView" : 4,
            "componentType" : 5126,
            "count" : 2099,
            "max" : [
                0.35447901487350464,
                16.6678466796875,
                0.4103670120239258
            ],
            "min" : [
                -0.3544740080833435,
                16.409137725830078,
                -0.11184199899435043
            ],
            "type" : "VEC3"
        },
        {
            "bufferView" : 5,
            "componentType" : 5126,
            "count" : 2099,
            "type" : "VEC3"
        },
        {
            "bufferView" : 6,
            "componentType" : 5126,
            "count" : 2099,
            "type" : "VEC2"
        },
        {
            "bufferView" : 7,
            "componentType" : 5123,
            "count" : 10458,
            "type" : "SCALAR"
        },
        {
            "bufferView" : 8,
            "componentType" : 5126,
            "count" : 117,
            "max" : [
                0.491100013256073,
                17.32682991027832,
                0.3699069917201996
            ],
            "min" : [
                0.14846499264240265,
                16.98465919494629,
                0.045191001147031784
            ],
            "type" : "VEC3"
        },
        {
            "bufferView" : 9,
            "componentType" : 5126,
            "count" : 117,
            "type" : "VEC3"
        },
        {
            "bufferView" : 10,
            "componentType" : 5126,
            "count" : 117,
            "type" : "VEC2"
        },
        {
            "bufferView" : 11,
            "componentType" : 5123,
            "count" : 624,
            "type" : "SCALAR"
        },
        {
            "bufferView" : 12,
            "componentType" : 5126,
            "count" : 3073,
            "max" : [
                0.3097440004348755,
                16.574745178222656,
                0.38943400979042053
            ],
            "min" : [
                -0.30974099040031433,
                16.36212921142578,
                -0.08438699692487717
            ],
            "type" : "VEC3"
        },
        {
            "bufferView" : 13,
            "componentType" : 5126,
            "count" : 3073,
            "type" : "VEC3"
        },
        {
            "bufferView" : 14,
            "componentType" : 5126,
            "count" : 3073,
            "type" : "VEC2"
        },
        {
            "bufferView" : 15,
            "componentType" : 5123,
            "count" : 14592,
            "type" : "SCALAR"
        },
        {
            "bufferView" : 16,
            "componentType" : 5126,
            "count" : 117,
            "max" : [
                -0.14833800494670868,
                17.326936721801758,
                0.3699379861354828
            ],
            "min" : [
                -0.49094098806381226,
                16.984798431396484,
                0.04525600001215935
            ],
            "type" : "VEC3"
        },
        {
            "bufferView" : 17,
            "componentType" : 5126,
            "count" : 117,
            "type" : "VEC3"
        },
        {
            "bufferView" : 18,
            "componentType" : 5126,
            "count" : 117,
            "type" : "VEC2"
        },
        {
            "bufferView" : 19,
            "componentType" : 5123,
            "count" : 624,
            "type" : "SCALAR"
        },
        {
            "bufferView" : 20,
            "componentType" : 5126,
            "count" : 11932,
            "max" : [
                7.982087135314941,
                18.408742904663086,
                1.1559510231018066
            ],
            "min" : [
                -7.982089996337891,
                -0.07688199728727341,
                -2.224055051803589
            ],
            "type" : "VEC3"
        },
        {
            "bufferView" : 21,
            "componentType" : 5126,
            "count" : 11932,
            "type" : "VEC3"
        },
        {
            "bufferView" : 22,
            "componentType" : 5126,
            "count" : 11932,
            "type" : "VEC2"
        },
        {
            "bufferView" : 23,
            "componentType" : 5123,
            "count" : 61872,
            "type" : "SCALAR"
        },
        {
            "bufferView" : 24,
            "componentType" : 5126,
            "count" : 3165,
            "max" : [
                0.30875998735427856,
                16.414033889770508,
                0.3701469898223877
            ],
            "min" : [
                -0.30886098742485046,
                16.162736892700195,
                -0.10056599974632263
            ],
            "type" : "VEC3"
        },
        {
            "bufferView" : 25,
            "componentType" : 5126,
            "count" : 3165,
            "type" : "VEC3"
        },
        {
            "bufferView" : 26,
            "componentType" : 5126,
            "count" : 3165,
            "type" : "VEC2"
        },
        {
            "bufferView" : 27,
            "componentType" : 5123,
            "count" : 15168,
            "type" : "SCALAR"
        },
        {
            "bufferView" : 28,
            "componentType" : 5126,
            "count" : 116,
            "max" : [
                -0.14940199255943298,
                17.325668334960938,
                0.35218098759651184
            ],
            "min" : [
                -0.4884360134601593,
                16.98709487915039,
                0.04690700024366379
            ],
            "type" : "VEC3"
        },
        {
            "bufferView" : 29,
            "componentType" : 5126,
            "count" : 116,
            "type" : "VEC3"
        },
        {
            "bufferView" : 30,
            "componentType" : 5126,
            "count" : 116,
            "type" : "VEC2"
        },
        {
            "bufferView" : 31,
            "componentType" : 5123,
            "count" : 528,
            "type" : "SCALAR"
        },
        {
            "bufferView" : 32,
            "componentType" : 5126,
            "count" : 116,
            "max" : [
                0.48859500885009766,
                17.3255615234375,
                0.35214900970458984
            ],
            "min" : [
                0.14952799677848816,
                16.986955642700195,
                0.046842001378536224
            ],
            "type" : "VEC3"
        },
        {
            "bufferView" : 33,
            "componentType" : 5126,
            "count" : 116,
            "type" : "VEC3"
        },
        {
            "bufferView" : 34,
            "componentType" : 5126,
            "count" : 116,
            "type" : "VEC2"
        },
        {
            "bufferView" : 35,
            "componentType" : 5123,
            "count" : 528,
            "type" : "SCALAR"
        },
        {
            "bufferView" : 36,
            "componentType" : 5126,
            "count" : 420,
            "max" : [
                0.25664401054382324,
                16.50049591064453,
                0.33513399958610535
            ],
            "min" : [
                -0.25664401054382324,
                15.719578742980957,
                -0.8723840117454529
            ],
            "type" : "VEC3"
        },
        {
            "bufferView" : 37,
            "componentType" : 5126,
            "count" : 420,
            "type" : "VEC3"
        },
        {
            "bufferView" : 38,
            "componentType" : 5126,
            "count" : 420,
            "type" : "VEC2"
        },
        {
            "bufferView" : 39,
            "componentType" : 5123,
            "count" : 2292,
            "type" : "SCALAR"
        }
    ],
    "bufferViews" : [
        {
            "buffer" : 0,
            "byteLength" : 25128,
            "byteOffset" : 0
        },
        {
            "buffer" : 0,
            "byteLength" : 25128,
            "byteOffset" : 25128
        },
        {
            "buffer" : 0,
            "byteLength" : 16752,
            "byteOffset" : 50256
        },
        {
            "buffer" : 0,
            "byteLength" : 20916,
            "byteOffset" : 67008
        },
        {
            "buffer" : 0,
            "byteLength" : 25188,
            "byteOffset" : 87924
        },
        {
            "buffer" : 0,
            "byteLength" : 25188,
            "byteOffset" : 113112
        },
        {
            "buffer" : 0,
            "byteLength" : 16792,
            "byteOffset" : 138300
        },
        {
            "buffer" : 0,
            "byteLength" : 20916,
            "byteOffset" : 155092
        },
        {
            "buffer" : 0,
            "byteLength" : 1404,
            "byteOffset" : 176008
        },
        {
            "buffer" : 0,
            "byteLength" : 1404,
            "byteOffset" : 177412
        },
        {
            "buffer" : 0,
            "byteLength" : 936,
            "byteOffset" : 178816
        },
        {
            "buffer" : 0,
            "byteLength" : 1248,
            "byteOffset" : 179752
        },
        {
            "buffer" : 0,
            "byteLength" : 36876,
            "byteOffset" : 181000
        },
        {
            "buffer" : 0,
            "byteLength" : 36876,
            "byteOffset" : 217876
        },
        {
            "buffer" : 0,
            "byteLength" : 24584,
            "byteOffset" : 254752
        },
        {
            "buffer" : 0,
            "byteLength" : 29184,
            "byteOffset" : 279336
        },
        {
            "buffer" : 0,
            "byteLength" : 1404,
            "byteOffset" : 308520
        },
        {
            "buffer" : 0,
            "byteLength" : 1404,
            "byteOffset" : 309924
        },
        {
            "buffer" : 0,
            "byteLength" : 936,
            "byteOffset" : 311328
        },
        {
            "buffer" : 0,
            "byteLength" : 1248,
            "byteOffset" : 312264
        },
        {
            "buffer" : 0,
            "byteLength" : 143184,
            "byteOffset" : 313512
        },
        {
            "buffer" : 0,
            "byteLength" : 143184,
            "byteOffset" : 456696
        },
        {
            "buffer" : 0,
            "byteLength" : 95456,
            "byteOffset" : 599880
        },
        {
            "buffer" : 0,
            "byteLength" : 123744,
            "byteOffset" : 695336
        },
        {
            "buffer" : 0,
            "byteLength" : 37980,
            "byteOffset" : 819080
        },
        {
            "buffer" : 0,
            "byteLength" : 37980,
            "byteOffset" : 857060
        },
        {
            "buffer" : 0,
            "byteLength" : 25320,
            "byteOffset" : 895040
        },
        {
            "buffer" : 0,
            "byteLength" : 30336,
            "byteOffset" : 920360
        },
        {
            "buffer" : 0,
            "byteLength" : 1392,
            "byteOffset" : 950696
        },
        {
            "buffer" : 0,
            "byteLength" : 1392,
            "byteOffset" : 952088
        },
        {
            "buffer" : 0,
            "byteLength" : 928,
            "byteOffset" : 953480
        },
        {
            "buffer" : 0,
            "byteLength" : 1056,
            "byteOffset" : 954408
        },
        {
            "buffer" : 0,
            "byteLength" : 1392,
            "byteOffset" : 955464
        },
        {
            "buffer" : 0,
            "byteLength" : 1392,
            "byteOffset" : 956856
        },
        {
            "buffer" : 0,
            "byteLength" : 928,
            "byteOffset" : 958248
        },
        {
            "buffer" : 0,
            "byteLength" : 1056,
            "byteOffset" : 959176
        },
        {
            "buffer" : 0,
            "byteLength" : 5040,
            "byteOffset" : 960232
        },
        {
            "buffer" : 0,
            "byteLength" : 5040,
            "byteOffset" : 965272
        },
        {
            "buffer" : 0,
            "byteLength" : 3360,
            "byteOffset" : 970312
        },
        {
            "buffer" : 0,
            "byteLength" : 4584,
            "byteOffset" : 973672
        }
    ],
    "buffers" : [
        {
            "byteLength" : 978256,
            "uri" : "data:application/octet-stream;base64,"
        }
    ]
}
